<svg xmlns="http://www.w3.org/2000/svg" xmlns:xlink="http://www.w3.org/1999/xlink" width="500" zoomAndPan="magnify" viewBox="0 0 375 374.999991" height="500" preserveAspectRatio="xMidYMid meet" version="1.0"><defs><clipPath id="c0080b7a47"><path d="M 15.726562 15.726562 L 359.226562 15.726562 L 359.226562 359.226562 L 15.726562 359.226562 Z M 15.726562 15.726562 " clip-rule="nonzero"/></clipPath></defs><rect x="-37.5" width="450" fill="#ffffff" y="-37.499999" height="449.999989" fill-opacity="1"/><rect x="-37.5" width="450" fill="#ffffff" y="-37.499999" height="449.999989" fill-opacity="1"/><g clip-path="url(#c0080b7a47)"><path fill="#000000" d="M 116.300781 16.90625 C 98.03125 17.765625 85.558594 20.691406 74.652344 24.964844 C 63.359375 29.367188 53.796875 35.253906 44.285156 44.816406 C 34.753906 54.378906 28.894531 63.957031 24.542969 75.269531 C 20.320312 86.207031 17.457031 98.679688 16.648438 116.964844 C 15.839844 135.261719 15.660156 141.105469 15.742188 187.734375 C 15.824219 234.347656 16.035156 240.207031 16.90625 258.523438 C 17.78125 276.789062 20.691406 289.246094 24.964844 300.167969 C 29.367188 311.460938 35.253906 321.007812 44.816406 330.539062 C 54.378906 340.070312 63.957031 345.910156 75.269531 350.277344 C 86.1875 354.5 98.679688 357.382812 116.949219 358.175781 C 135.261719 358.984375 141.105469 359.160156 187.71875 359.0625 C 234.347656 358.984375 240.191406 358.773438 258.503906 357.898438 C 276.773438 357.023438 289.230469 354.097656 300.152344 349.839844 C 311.445312 345.425781 321.007812 339.550781 330.523438 329.988281 C 340.035156 320.425781 345.894531 310.847656 350.261719 299.539062 C 354.484375 288.617188 357.363281 276.125 358.15625 257.875 C 358.949219 239.558594 359.144531 233.703125 359.0625 187.085938 C 358.984375 140.472656 358.757812 134.632812 357.898438 116.316406 C 357.023438 98.03125 354.113281 85.574219 349.839844 74.652344 C 345.425781 63.359375 339.550781 53.8125 329.988281 44.285156 C 320.425781 34.769531 310.847656 28.894531 299.539062 24.542969 C 288.617188 20.320312 276.125 17.441406 257.859375 16.648438 C 239.542969 15.839844 233.6875 15.660156 187.070312 15.742188 C 140.457031 15.824219 134.617188 16.035156 116.300781 16.90625 M 118.304688 327.253906 C 101.578125 326.527344 92.484375 323.742188 86.414062 321.414062 C 78.390625 318.308594 72.679688 314.585938 66.644531 308.613281 C 60.625 302.613281 56.902344 296.902344 53.765625 288.90625 C 51.417969 282.855469 48.585938 273.78125 47.792969 257.035156 C 46.9375 238.945312 46.742188 233.507812 46.660156 187.671875 C 46.582031 141.847656 46.742188 136.410156 47.535156 118.304688 C 48.246094 101.578125 51.046875 92.484375 53.375 86.433594 C 56.484375 78.40625 60.1875 72.695312 66.175781 66.660156 C 72.175781 60.640625 77.890625 56.917969 85.898438 53.78125 C 91.949219 51.417969 101.027344 48.601562 117.757812 47.8125 C 135.863281 46.953125 141.28125 46.773438 187.121094 46.679688 C 232.957031 46.582031 238.394531 46.742188 256.5 47.550781 C 273.230469 48.28125 282.324219 51.046875 288.375 53.394531 C 296.398438 56.5 302.125 60.1875 308.144531 66.191406 C 314.164062 72.195312 317.902344 77.890625 321.023438 85.914062 C 323.386719 91.949219 326.203125 101.042969 326.996094 117.757812 C 327.851562 135.863281 328.046875 141.296875 328.128906 187.121094 C 328.207031 232.957031 328.046875 238.394531 327.253906 256.484375 C 326.527344 273.214844 323.742188 282.324219 321.414062 288.375 C 318.308594 296.382812 314.601562 302.109375 308.597656 308.128906 C 302.597656 314.132812 296.902344 317.871094 288.875 321.007812 C 282.839844 323.371094 273.746094 326.1875 257.035156 326.980469 C 238.929688 327.835938 233.507812 328.03125 187.652344 328.113281 C 141.832031 328.191406 136.394531 328.03125 118.289062 327.238281 M 258.261719 95.636719 C 258.277344 107.011719 267.535156 116.21875 278.890625 116.1875 C 290.265625 116.171875 299.472656 106.933594 299.457031 95.558594 C 299.441406 84.183594 290.1875 74.976562 278.8125 74.992188 C 267.4375 75.007812 258.230469 84.265625 258.246094 95.621094 M 99.246094 187.574219 C 99.34375 236.257812 138.886719 275.640625 187.558594 275.542969 C 236.242188 275.445312 275.640625 235.917969 275.542969 187.234375 C 275.445312 138.5625 235.902344 99.164062 187.21875 99.246094 C 138.546875 99.34375 99.148438 138.886719 99.246094 187.574219 M 130.167969 187.507812 C 130.117188 155.910156 155.683594 130.230469 187.28125 130.183594 C 218.882812 130.117188 244.558594 155.683594 244.625 187.296875 C 244.6875 218.898438 219.109375 244.574219 187.507812 244.625 C 155.910156 244.6875 130.230469 219.109375 130.183594 187.507812 " fill-opacity="1" fill-rule="nonzero"/></g></svg>