<svg xmlns="http://www.w3.org/2000/svg" xmlns:xlink="http://www.w3.org/1999/xlink" width="500" zoomAndPan="magnify" viewBox="0 0 375 374.999991" height="500" preserveAspectRatio="xMidYMid meet" version="1.0"><rect x="-37.5" width="450" fill="#ffffff" y="-37.499999" height="449.999989" fill-opacity="1"/><rect x="-37.5" width="450" fill="#ffffff" y="-37.499999" height="449.999989" fill-opacity="1"/><rect x="-37.5" width="450" fill="#ffffff" y="-37.499999" height="449.999989" fill-opacity="1"/><path fill="#000000" d="M 239.863281 83.027344 C 230.554688 76.953125 223.839844 67.257812 221.734375 55.929688 C 221.28125 53.488281 221.027344 50.964844 221.027344 48.390625 L 191.320312 48.390625 L 191.269531 167.4375 C 190.765625 180.765625 179.792969 191.472656 166.34375 191.472656 C 162.167969 191.472656 158.230469 190.429688 154.761719 188.609375 C 146.820312 184.417969 141.382812 176.089844 141.382812 166.511719 C 141.382812 152.742188 152.59375 141.535156 166.359375 141.535156 C 168.933594 141.535156 171.390625 141.953125 173.730469 142.695312 L 173.730469 112.367188 C 171.324219 112.027344 168.867188 111.828125 166.359375 111.828125 C 136.214844 111.828125 111.675781 136.351562 111.675781 166.511719 C 111.675781 185.007812 120.914062 201.386719 135.019531 211.28125 C 143.90625 217.511719 154.695312 221.195312 166.359375 221.195312 C 196.503906 221.195312 221.042969 196.671875 221.042969 166.511719 L 221.042969 106.136719 C 232.691406 114.503906 246.964844 119.433594 262.382812 119.433594 L 262.382812 89.726562 C 254.085938 89.726562 246.359375 87.253906 239.878906 83.027344 Z M 239.863281 83.027344 " fill-opacity="1" fill-rule="nonzero"/><path fill="#000000" d="M 47.917969 254.722656 L 95.785156 254.722656 L 91.394531 268.425781 L 78.972656 268.425781 C 78.972656 268.425781 78.972656 319.054688 78.972656 319.054688 L 63.503906 319.054688 L 63.503906 268.425781 L 47.933594 268.457031 L 47.933594 254.742188 Z M 47.917969 254.722656 " fill-opacity="1" fill-rule="nonzero"/><path fill="#000000" d="M 174.203125 254.722656 L 223.183594 254.722656 L 218.789062 268.425781 L 205.289062 268.425781 C 205.289062 268.425781 205.289062 319.054688 205.289062 319.054688 L 189.789062 319.054688 L 189.789062 268.425781 L 174.21875 268.457031 L 174.21875 254.742188 Z M 174.203125 254.722656 " fill-opacity="1" fill-rule="nonzero"/><path fill="#000000" d="M 98.699219 275.175781 L 114.046875 275.175781 L 114.03125 319.035156 L 98.800781 319.035156 Z M 98.699219 275.175781 " fill-opacity="1" fill-rule="nonzero"/><path fill="#000000" d="M 120.140625 254.539062 L 135.476562 254.539062 L 135.476562 284.5 L 150.671875 269.585938 L 168.96875 269.585938 C 168.96875 269.585938 149.746094 288.234375 149.746094 288.234375 L 171.273438 319.035156 L 154.394531 319.035156 L 140.035156 297.675781 L 135.492188 302.085938 L 135.492188 319.035156 L 120.160156 319.035156 L 120.160156 254.539062 Z M 120.140625 254.539062 " fill-opacity="1" fill-rule="nonzero"/><path fill="#000000" d="M 276.015625 254.539062 L 291.347656 254.539062 L 291.347656 284.5 L 306.546875 269.585938 L 324.84375 269.585938 C 324.84375 269.585938 305.621094 288.234375 305.621094 288.234375 L 327.148438 319.035156 L 310.265625 319.035156 L 295.910156 297.675781 L 291.367188 302.085938 L 291.367188 319.035156 L 276.03125 319.035156 L 276.03125 254.539062 Z M 276.015625 254.539062 " fill-opacity="1" fill-rule="nonzero"/><path fill="#000000" d="M 114.097656 262.449219 C 114.097656 262.957031 114.050781 263.460938 113.949219 263.957031 C 113.851562 264.453125 113.703125 264.9375 113.511719 265.40625 C 113.316406 265.875 113.078125 266.320312 112.796875 266.742188 C 112.515625 267.164062 112.195312 267.554688 111.835938 267.914062 C 111.476562 268.269531 111.085938 268.589844 110.664062 268.871094 C 110.242188 269.15625 109.796875 269.394531 109.328125 269.585938 C 108.859375 269.78125 108.378906 269.925781 107.878906 270.027344 C 107.382812 270.125 106.878906 270.175781 106.375 270.175781 C 105.867188 270.175781 105.363281 270.125 104.867188 270.027344 C 104.367188 269.925781 103.886719 269.78125 103.417969 269.585938 C 102.949219 269.394531 102.503906 269.15625 102.082031 268.871094 C 101.660156 268.589844 101.269531 268.269531 100.910156 267.914062 C 100.550781 267.554688 100.230469 267.164062 99.949219 266.742188 C 99.667969 266.320312 99.429688 265.875 99.234375 265.40625 C 99.042969 264.9375 98.894531 264.453125 98.796875 263.957031 C 98.699219 263.460938 98.648438 262.957031 98.648438 262.449219 C 98.648438 261.941406 98.699219 261.441406 98.796875 260.941406 C 98.894531 260.445312 99.042969 259.960938 99.234375 259.492188 C 99.429688 259.023438 99.667969 258.578125 99.949219 258.15625 C 100.230469 257.734375 100.550781 257.34375 100.910156 256.988281 C 101.269531 256.628906 101.660156 256.308594 102.082031 256.027344 C 102.503906 255.742188 102.949219 255.507812 103.417969 255.3125 C 103.886719 255.117188 104.367188 254.972656 104.867188 254.871094 C 105.363281 254.773438 105.867188 254.722656 106.375 254.722656 C 106.878906 254.722656 107.382812 254.773438 107.878906 254.871094 C 108.378906 254.972656 108.859375 255.117188 109.328125 255.3125 C 109.796875 255.507812 110.242188 255.742188 110.664062 256.027344 C 111.085938 256.308594 111.476562 256.628906 111.835938 256.988281 C 112.195312 257.34375 112.515625 257.734375 112.796875 258.15625 C 113.078125 258.578125 113.316406 259.023438 113.511719 259.492188 C 113.703125 259.960938 113.851562 260.445312 113.949219 260.941406 C 114.050781 261.441406 114.097656 261.941406 114.097656 262.449219 Z M 114.097656 262.449219 " fill-opacity="1" fill-rule="nonzero"/><path fill="#000000" d="M 243.515625 266.523438 C 229.003906 266.523438 217.257812 278.269531 217.257812 292.78125 C 217.257812 307.289062 229.003906 319.035156 243.515625 319.035156 C 258.023438 319.035156 269.769531 307.289062 269.769531 292.78125 C 269.769531 278.269531 258.023438 266.523438 243.515625 266.523438 Z M 243.515625 305.554688 C 236.460938 305.554688 230.757812 299.832031 230.757812 292.796875 C 230.757812 285.761719 236.480469 280.039062 243.515625 280.039062 C 250.550781 280.039062 256.273438 285.761719 256.273438 292.796875 C 256.273438 299.832031 250.550781 305.554688 243.515625 305.554688 Z M 243.515625 305.554688 " fill-opacity="1" fill-rule="nonzero"/></svg>